<svg width="93" height="25" viewBox="0 0 93 25" fill="none" xmlns="http://www.w3.org/2000/svg">
<path d="M11.44 15.1343L15.3762 20.9108C15.8792 21.6587 16.4039 22.4033 16.9051 23.1561C17.2186 23.6243 17.1063 23.8243 16.5229 23.8275C15.284 23.8373 14.0451 23.8275 12.8063 23.8275C12.3804 23.8275 12.1105 23.6438 11.8825 23.3008C10.2799 20.8734 8.65541 18.4591 7.0561 16.0302C6.98826 15.897 6.87928 15.7877 6.74436 15.7175C6.60944 15.6473 6.45528 15.6196 6.30338 15.6383C5.81218 15.6692 5.31931 15.6383 4.76777 15.6383V16.2578C4.76777 18.5155 4.76777 20.7748 4.76777 23.0358C4.76777 23.7511 4.68562 23.8275 3.92955 23.8275C2.85552 23.8275 1.78149 23.8275 0.707454 23.8275C0.134114 23.8275 0 23.7007 0 23.1512C0.00335286 15.7516 0.00502929 8.34985 0.00502929 0.94592C0.00502929 0.396397 0.139144 0.272836 0.710807 0.27121C3.17348 0.27121 5.63448 0.261455 8.09716 0.279339C9.35702 0.265665 10.6082 0.48243 11.7853 0.918282C14.7576 2.07098 16.2664 4.26257 16.5128 7.31584C16.6185 8.50142 16.4602 9.69518 16.0485 10.8162C15.7381 11.6987 15.2409 12.5086 14.5887 13.1937C13.9365 13.8789 13.1438 14.4241 12.2614 14.7946C12.1256 14.8531 11.9898 14.9084 11.8524 14.9571L11.44 15.1197V15.1343ZM4.80968 4.25281V11.582C6.20447 11.5299 7.56573 11.5641 8.90185 11.408C10.6252 11.2064 11.6696 10.2862 11.9077 8.79857C12.2681 6.50293 11.4836 5.0397 9.20863 4.56172C7.7954 4.26745 6.30003 4.34386 4.80968 4.25281Z" fill="#D20B5B"/>
<path d="M80.5072 0C87.5013 0.00812904 93.0117 5.40256 93 12.2261C92.9967 13.8153 92.6703 15.3882 92.0395 16.8549C91.4087 18.3217 90.4859 19.6534 89.3238 20.7739C88.1617 21.8943 86.7833 22.7816 85.2672 23.3849C83.7512 23.9881 82.1274 24.2956 80.4888 24.2896C73.5098 24.3058 67.9004 18.6318 67.9843 12.1123C68.0681 5.36517 73.5618 0 80.5072 0ZM80.4971 19.7601C84.8559 19.7601 88.1651 16.4857 88.1685 12.1675C88.1685 7.78762 84.9112 4.52625 80.5206 4.50836C76.13 4.49048 72.8241 7.78274 72.8208 12.1236C72.8174 16.4646 76.1183 19.7649 80.4971 19.7649" fill="#D20B5B"/>
<path d="M32.9955 0.0112305C36.164 0.0112305 38.9049 1.05175 41.2 3.1783C41.7348 3.66605 41.7364 3.79936 41.2402 4.31637C40.5898 4.99812 39.9365 5.67771 39.2805 6.35513C38.8731 6.77459 38.744 6.78272 38.293 6.41529C37.2397 5.53302 35.9693 4.92934 34.6049 4.66267C29.5756 3.70669 26.0098 7.11276 25.4818 10.8131C25.0526 13.8095 25.8975 16.3782 28.4055 18.2918C31.123 20.3598 35.1615 20.2428 38.0198 18.0658C38.8379 17.4415 38.8379 17.4415 39.5437 18.1796C40.1271 18.7909 40.7172 19.4006 41.2955 20.0135C41.723 20.4655 41.723 20.6232 41.2603 21.0508C39.1346 23.018 36.6284 24.1138 33.6695 24.2439C29.0576 24.4471 25.4315 22.6912 22.7006 19.1258C19.4516 14.8955 19.2169 7.03147 25.3862 2.44994C27.6393 0.776986 30.1808 0.0144821 32.9955 0.0112305Z" fill="#D20B5B"/>
<path d="M56.7791 24.3008C52.464 24.2472 49.0977 22.4507 46.5529 19.1226C43.3291 14.9102 43.0609 7.02338 49.319 2.37683C53.5101 -0.730094 60.3969 -0.959333 64.6584 2.81742C64.826 2.96862 64.9936 3.12632 65.1613 3.27427C65.5167 3.5783 65.5318 3.87094 65.1948 4.21236C64.4857 4.92934 63.7849 5.65445 63.1026 6.3942C62.7891 6.73399 62.5192 6.73237 62.1772 6.4446C61.1197 5.53878 59.833 4.92161 58.4489 4.65621C53.443 3.70348 49.8823 7.08354 49.3358 10.7627C48.8899 13.7737 49.7297 16.3604 52.2561 18.2837C54.9988 20.3729 59.0842 20.2347 61.9459 17.996C62.0733 17.8952 62.1873 17.7293 62.3298 17.7033C62.5393 17.6675 62.8562 17.6448 62.9752 17.7618C63.7648 18.5357 64.5142 19.3486 65.277 20.1485C65.5502 20.4347 65.4731 20.6964 65.2116 20.9436C63.4279 22.6393 61.329 23.7464 58.8411 24.109C58.1572 24.2082 57.4614 24.2342 56.7708 24.2927" fill="#D20B5B"/>
</svg>
